<?xml version="1.0" standalone="no"?>
<!DOCTYPE svg PUBLIC "-//W3C//DTD SVG 20010904//EN"
 "http://www.w3.org/TR/2001/REC-SVG-20010904/DTD/svg10.dtd">
<svg version="1.0" xmlns="http://www.w3.org/2000/svg"
 width="612.000000pt" height="612.000000pt" viewBox="0 0 612.000000 612.000000"
 preserveAspectRatio="xMidYMid meet">
<metadata>
Created by potrace 1.14, written by Peter Selinger 2001-2017
</metadata>
<g transform="translate(0.000000,612.000000) scale(0.100000,-0.100000)"
fill="#000000" stroke="none">
<path d="M2955 5097 c-173 -45 -300 -185 -325 -359 -5 -35 -10 -327 -10 -650
l0 -588 -592 0 c-340 0 -619 -4 -653 -10 -33 -5 -89 -24 -125 -42 -261 -128
-319 -484 -115 -694 62 -63 153 -110 241 -124 33 -6 319 -10 652 -10 l592 0 0
-601 c0 -669 2 -687 66 -796 142 -241 478 -284 680 -88 61 60 108 148 124 234
6 33 10 287 10 652 l0 599 599 0 c365 0 619 4 652 10 235 45 388 263 352 500
-29 185 -179 334 -364 360 -35 5 -328 10 -651 10 l-587 0 -3 633 -3 632 -23
57 c-70 174 -210 275 -392 284 -42 2 -97 -2 -125 -9z"/>
</g>
</svg>
